/vscmnt/brussel_pixiu_data/_data_brussel/112/vsc11236/PredSimResults/SUBJ10mtu3D/weighted-LRposFixed/trackIG/worker_03.mot
version=1
nRows=5
nColumns=50
inDegrees=yes
endheader
                time	         pelvis_tilt	         pelvis_list	     pelvis_rotation	           pelvis_tx	           pelvis_ty	           pelvis_tz	       hip_flexion_r	     hip_adduction_r	      hip_rotation_r	        knee_angle_r	       ankle_angle_r	         mtp_angle_r	       hip_flexion_l	     hip_adduction_l	      hip_rotation_l	        knee_angle_l	       ankle_angle_l	         mtp_angle_l	    lumbar_extension	      lumbar_bending	     lumbar_rotation	 ercspn_r/activation	 intobl_r/activation	 extobl_r/activation	    abd_r/activation	    add_r/activation	hamstrings_r/activation	bifemsh_r/activation	glut_max_r/activation	iliopsoas_r/activation	rect_fem_r/activation	  vasti_r/activation	gastroc_r/activation	 soleus_r/activation	tib_ant_r/activation	 ercspn_l/activation	 intobl_l/activation	 extobl_l/activation	    abd_l/activation	    add_l/activation	hamstrings_l/activation	bifemsh_l/activation	glut_max_l/activation	iliopsoas_l/activation	rect_fem_l/activation	  vasti_l/activation	gastroc_l/activation	 soleus_l/activation	tib_ant_l/activation	
          1.73800627	         -4.63106952	          3.00822488	        -10.82875147	          1.94656703	          0.82697824	          0.01590143	        -13.30802942	         -3.37524642	          6.15108704	         -6.88917251	         10.07145663	         24.37329677	         28.73535405	         -1.20746035	         -9.06395240	         -3.49025084	          6.97900971	          0.25198138	         -7.16183919	         -1.02274238	          3.90930644	          0.02663397	          0.00999999	          0.00999999	          0.04147891	          0.02984159	          0.02651474	          0.13701124	          0.03441657	          0.33176098	          0.00999999	          0.00999999	          0.27055120	          0.24537600	          0.01816075	          0.09017801	          0.17023683	          0.02290996	          0.01193111	          0.11398425	          0.03692994	          0.14765100	          0.00999999	          0.08075167	          0.01193111	          0.00999999	          0.01468481	          0.00999999	          0.26280672	
          1.74959298	         -4.70117845	          2.82253554	        -10.67464488	          1.96190956	          0.82526060	          0.01553866	        -13.43480495	         -3.18630916	          5.50707241	         -8.59749715	          9.57006296	         26.04870648	         28.91309831	         -1.01595181	         -8.06013229	         -5.26598609	          6.69115793	          0.25269452	         -6.95172106	         -1.39872322	          4.07860087	          0.07521972	          0.00999999	          0.00999999	          0.03476532	          0.07828319	          0.02222318	          0.11483521	          0.02884606	          0.35147139	          0.00999999	          0.00999999	          0.22676098	          0.23263977	          0.01522133	          0.07558220	          0.14268305	          0.01920186	          0.00999999	          0.19096060	          0.03211031	          0.12375286	          0.05840949	          0.06768156	          0.00999999	          0.00999999	          0.01947689	          0.01423514	          0.26502660	
          1.76117969	         -4.75498271	          2.64643448	        -10.45982196	          1.97760462	          0.82367780	          0.01514453	        -13.41964583	         -2.99126781	          4.80643150	        -10.63542064	          8.97071367	         27.69069660	         28.89474117	         -0.84612843	         -7.01980793	         -7.00373523	          6.40700746	          0.23963139	         -6.71825610	         -1.80499177	          4.22386036	          0.09208975	          0.00999999	          0.00999999	          0.02913836	          0.07754574	          0.01971677	          0.09624849	          0.02417716	          0.33913225	          0.00999999	          0.00999999	          0.19005845	          0.21701776	          0.01275767	          0.06334880	          0.12769005	          0.01609393	          0.04228328	          0.16511110	          0.04395353	          0.10372277	          0.07046736	          0.05672692	          0.00999999	          0.00999999	          0.01632445	          0.01193111	          0.29768822	
          1.77276640	         -4.79492688	          2.47645178	        -10.18245916	          1.99344130	          0.82238671	          0.01464676	        -13.18989527	         -2.79189997	          4.05258493	        -13.08521378	          8.22437238	         29.24518109	         28.70204286	         -0.65770292	         -6.05128418	         -8.45491335	          6.03961150	          0.23025657	         -6.48476895	         -2.22478381	          4.34487344	          0.11463015	          0.00999999	          0.00999999	          0.02442215	          0.08178773	          0.01789955	          0.08067013	          0.02026395	          0.32863243	          0.00999999	          0.00999999	          0.15929643	          0.18701052	          0.01069277	          0.07974481	          0.10702271	          0.01348904	          0.09539949	          0.17169140	          0.04521880	          0.08693466	          0.08424304	          0.04754535	          0.00999999	          0.00999999	          0.01368224	          0.00999999	          0.31785107	
          1.78435311	         -4.82147304	          2.31232933	         -9.84806239	          2.00921741	          0.82152134	          0.01404746	        -12.69837919	         -2.59303133	          3.24013462	        -15.98649858	          7.31235737	         30.56467930	         28.42539444	         -0.44162897	         -5.18152694	         -9.76883067	          5.68132695	          0.21882294	         -6.26933121	         -2.65715800	          4.44021006	          0.13905720	          0.00999999	          0.00999999	          0.02046929	          0.09494910	          0.02005961	          0.06761322	          0.01698412	          0.30504715	          0.00999999	          0.00999999	          0.13351341	          0.15674182	          0.00999999	          0.07733278	          0.08970048	          0.01130576	          0.12025728	          0.17958997	          0.04104980	          0.07286380	          0.09820648	          0.03984987	          0.00999999	          0.02214451	          0.01146770	          0.00999999	          0.33691652	
